#define max_toggled_width 12
#define max_toggled_height 12
static unsigned char max_toggled_bits[] = {
   0x00, 0x00, 0xfe, 0x01, 0x02, 0x01, 0xfa, 0x07, 0xfa, 0x07, 0x0a, 0x04,
   0x0a, 0x04, 0x0a, 0x04, 0x0e, 0x04, 0x08, 0x04, 0xf8, 0x07, 0x00, 0x00 };
