#define shade_toggled_width 12
#define shade_toggled_height 12
static unsigned char shade_toggled_bits[] = {
   0x00, 0x00, 0xfe, 0x07, 0xfe, 0x07, 0x00, 0x00, 0x00, 0x00, 0x00, 0x00,
   0x00, 0x00, 0x00, 0x00, 0x00, 0x00, 0x00, 0x00, 0x00, 0x00, 0x00, 0x00 };
