#define _width 6
#define _height 7
static char _bits[] = {
 0x03,0x0f,0x1c,0x38,0x1c,0x0f,0x03 };
