#define _width 13
#define _height 13
static char _bits[] = {
 0x00,0x00,0x00,0x00,0x00,0x00,0x00,0x00,0x00,0x00,0x00,0x00,0x00,0x00,0x00,
 0x00,0x00,0x00,0xff,0x1f,0x01,0x10,0x01,0x10,0xff,0x1f };
