#define _width 13
#define _height 13
static char _bits[] = {
 0x7f,0x00,0x41,0x00,0x41,0x00,0xc1,0x1f,0x41,0x10,0x41,0x10,0x7f,0x10,0x08,
 0x10,0x08,0x10,0x08,0x10,0x08,0x10,0x08,0x10,0xf8,0x1f };
